<svg width="140" height="58" fill="none" xmlns="http://www.w3.org/2000/svg"><path d="M65.794 8.936V6.56h12v2.376h-4.632V23h-2.688V8.936h-4.68zm17.6 8.208V23h-2.663V6.56h6.24c3.712 0 5.568 1.744 5.568 5.232 0 2.336-.896 3.92-2.688 4.752L92.563 23h-2.928l-2.376-5.856h-3.864zm6.409-5.328c0-1.968-.944-2.952-2.832-2.952h-3.576v5.976h3.624c.96 0 1.664-.272 2.112-.816.448-.56.672-1.296.672-2.208zM94.707 23l4.056-16.44h5.304l4.08 16.44h-2.688l-.888-3.528h-6.312L97.37 23h-2.664zm6.12-14.208l-2.04 8.328h5.256l-2.016-8.328h-1.2zM111.21 23V6.56h4.656l4.992 14.088h.36V6.56h2.664V23h-4.56L114.21 8.888h-.336V23h-2.664zm21.997-14.376c-2.032 0-3.048.712-3.048 2.136 0 .736.24 1.264.72 1.584.48.304 1.536.688 3.168 1.152 1.648.448 2.808.992 3.48 1.632.672.624 1.008 1.616 1.008 2.976 0 1.728-.496 3.024-1.488 3.888-.976.848-2.312 1.272-4.008 1.272-1.36 0-2.864-.16-4.512-.48l-.864-.168.264-2.136c2.16.288 3.808.432 4.944.432 1.984 0 2.976-.88 2.976-2.64 0-.688-.224-1.192-.672-1.512-.448-.336-1.456-.696-3.024-1.08-1.568-.4-2.736-.944-3.504-1.632-.768-.688-1.152-1.776-1.152-3.264 0-1.488.48-2.608 1.44-3.36.976-.768 2.32-1.152 4.032-1.152 1.232 0 2.688.144 4.368.432l.84.144-.216 2.16c-2.24-.256-3.824-.384-4.752-.384zM81.469 52h-9.216V35.56h2.664v14.064h6.552V52zm2.895 0V35.56h2.663V52h-2.663zm13.86-6.288V43.36h4.681v8.352c-.432.112-1.312.232-2.64.36-1.312.128-2.264.192-2.856.192-2.496 0-4.216-.688-5.16-2.064-.944-1.376-1.416-3.528-1.416-6.456 0-2.944.48-5.088 1.44-6.432.976-1.344 2.656-2.016 5.04-2.016 1.408 0 2.992.16 4.752.48l.84.168-.096 2.112c-1.936-.256-3.672-.384-5.208-.384s-2.592.432-3.168 1.296c-.56.864-.84 2.464-.84 4.8s.264 3.952.792 4.848c.544.88 1.632 1.32 3.264 1.32 1.168 0 2.04-.072 2.616-.216v-4.008h-2.04zM116.737 52v-7.104h-7.104V52h-2.664V35.56h2.664v7.008h7.104V35.56h2.688V52h-2.688zm5.586-14.064V35.56h12v2.376h-4.632V52h-2.688V37.936h-4.68zm-94.916-8.938l.365-.633 7.585-13.132L28.872 4 14.434 28.998 28.872 54l6.485-11.233-7.585-13.132-.365-.637z" fill="#fff"/><path d="M19.822 40.865l-5.388 9.33L2.197 28.999 14.434 7.804l5.388 9.328 1.1-1.899L14.434 4 0 28.998 14.434 54l6.489-11.233-1.1-1.902zm23.156-14.919l.01.007V21.92l-9.102 15.763 1.156 2.005 7.936-13.742zm0-5.514l.01.007v-4.033L32.295 34.93l1.157 2.001 9.526-16.499zM30.267 31.417l12.711-22.01.01.008V4.55L28.872 28.998l1.395 2.42zm12.711-16.499l.01.007v-4.03L30.701 32.174l1.157 2.001 11.12-19.256zm.643-10.368v48.9l14.12-24.452L43.62 4.55zm-.643 26.907l.01.006v-4.032l-7.512 13.01 1.157 2 6.345-10.984zm0 5.513l.01.008v-4.033L37.07 43.197l1.156 2.002 4.752-8.228zm.01 11.23l-1.514 2.625 1.514 2.625V48.2zm-1.948 1.87l1.938-3.357.01.007v-2.75l-2.737 4.741.789 1.359zm1.938-7.589l.01.007v-4.03l-4.328 7.496 1.157 2.002 3.161-5.475z" fill="#fff"/></svg>